# xmcd
#
# Track frame offsets: 
#        150
#        11850
#        22911
#        49894
#        62914
#        97200
#        114728
#        129150
#        150993
#        167664
#        191044
#        206799
#
# Disc length: 3111 seconds
#
# Revision: 0
# Processed by: cddbd v1.5.2PL0 Copyright (c) Steve Scherf et al.
# Submitted via: ExactAudioCopy v1.3
#
DISCID=a40c250c
DTITLE=Ferenczi György - 1-ső pesti rackák - Betyárjáték
DYEAR=2016
DGENRE=Blues
TTITLE0=János Vitéz
TTITLE1=Keresztút
TTITLE2=Szatmári
TTITLE3=Tiszta szívvel
TTITLE4=48-as
TTITLE5=Lenn a Tiszán
TTITLE6=Tisza partján
TTITLE7=Megfogták a betyárokat
TTITLE8=Milyen lárma?!
TTITLE9=Kaszárnya
TTITLE10=Szelídecske
TTITLE11=Djoko Rosic emlékére
EXTD=
EXTT0=
EXTT1=
EXTT2=
EXTT3=
EXTT4=
EXTT5=
EXTT6=
EXTT7=
EXTT8=
EXTT9=
EXTT10=
EXTT11=
PLAYORDER=
